HIERARCHY
ROOT root
{
	OFFSET 0.000000 0.000000 0.000000
	CHANNELS 6 Xposition Yposition Zposition Zrotation Yrotation Xrotation
	JOINT lhip
	{
		OFFSET 0.058581 -0.082280 -0.017664
		CHANNELS 3 Zrotation Yrotation Xrotation
		JOINT lknee
		{
			OFFSET 0.043451 -0.386469 0.008037
			CHANNELS 3 Zrotation Yrotation Xrotation
			JOINT lankle
			{
				OFFSET -0.014790 -0.426874 -0.037428
				CHANNELS 3 Zrotation Yrotation Xrotation
				JOINT ltoe
				{
					OFFSET 0.041054 -0.060286 0.122042
					CHANNELS 3 Zrotation Yrotation Xrotation
					End Site
					{
						OFFSET 0.000000 0.000000 0.000000
					}
				}
			}
		}
	}
	JOINT rhip
	{
		OFFSET -0.060310 -0.090513 -0.013543
		CHANNELS 3 Zrotation Yrotation Xrotation
		JOINT rknee
		{
			OFFSET -0.043257 -0.383688 -0.004843
			CHANNELS 3 Zrotation Yrotation Xrotation
			JOINT rankle
			{
				OFFSET 0.019056 -0.420046 -0.034562
				CHANNELS 3 Zrotation Yrotation Xrotation
				JOINT rtoe
				{
					OFFSET -0.034840 -0.062106 0.130323
					CHANNELS 3 Zrotation Yrotation Xrotation
					End Site
					{
						OFFSET 0.000000 0.000000 0.000000
					}
				}
			}
		}
	}
	JOINT lowerback
	{
		OFFSET 0.004439 0.124404 -0.038385
		CHANNELS 3 Zrotation Yrotation Xrotation
		JOINT upperback
		{
			OFFSET 0.004488 0.137956 0.026820
			CHANNELS 3 Zrotation Yrotation Xrotation
			JOINT chest
			{
				OFFSET -0.002265 0.056032 0.002855
				CHANNELS 3 Zrotation Yrotation Xrotation
				JOINT lowerneck
				{
					OFFSET -0.013390 0.211636 -0.033468
					CHANNELS 3 Zrotation Yrotation Xrotation
					JOINT upperneck
					{
						OFFSET 0.010113 0.088937 0.050410
						CHANNELS 3 Zrotation Yrotation Xrotation
						End Site
						{
							OFFSET 0.000000 0.000000 0.000000
						}
					}
				}
				JOINT lclavicle
				{
					OFFSET 0.071702 0.114000 -0.018898
					CHANNELS 3 Zrotation Yrotation Xrotation
					JOINT lshoulder
					{
						OFFSET 0.122921 0.045205 -0.019046
						CHANNELS 3 Zrotation Yrotation Xrotation
						JOINT lelbow
						{
							OFFSET 0.255332 -0.015649 -0.022946
							CHANNELS 3 Zrotation Yrotation Xrotation
							JOINT lwrist
							{
								OFFSET 0.265709 0.012698 -0.007375
								CHANNELS 3 Zrotation Yrotation Xrotation
								End Site
								{
									OFFSET 0.000000 0.000000 0.000000
								}
							}
						}
					}
				}
				JOINT rclavicle
				{
					OFFSET -0.082954 0.112472 -0.023707
					CHANNELS 3 Zrotation Yrotation Xrotation
					JOINT rshoulder
					{
						OFFSET -0.113228 0.046853 -0.008472
						CHANNELS 3 Zrotation Yrotation Xrotation
						JOINT relbow
						{
							OFFSET -0.260127 -0.014369 -0.031269
							CHANNELS 3 Zrotation Yrotation Xrotation
							JOINT rwrist
							{
								OFFSET -0.269108 0.006794 -0.006027
								CHANNELS 3 Zrotation Yrotation Xrotation
								End Site
								{
									OFFSET 0.000000 0.000000 0.000000
								}
							}
						}
					}
				}
			}
		}
	}
}
MOTION
Frames: 15
Frame Time: 0.033333
-0.117172 -0.611155 0.853267 -109.935732 -10.814480 100.109983 25.719507 15.994873 -18.465155 -7.038339 3.672333 37.042534 -8.507245 9.564702 -3.504853 0.000000 -0.000000 0.000000 -9.837374 -11.891517 -50.990506 0.426607 -15.635910 70.677975 -4.099012 -9.972342 -31.783954 0.000000 -0.000000 0.000000 -6.281907 -3.008860 37.023736 -5.506077 0.517776 -4.287237 -3.546555 -4.100227 2.111490 -2.065937 -0.271986 -9.024421 3.661102 1.669964 -9.879230 -29.630987 4.085245 1.301435 -25.497181 11.785566 -0.184148 71.276706 -70.784707 -66.292957 44.138879 -8.729662 -12.825072 18.235519 5.282940 -6.071818 30.050162 6.663349 -2.240016 -84.901437 60.183828 -90.389556 -36.684592 13.565610 -13.923436 
-0.111708 -0.544312 0.876305 -107.199489 -10.111871 99.570552 23.353783 15.666144 -26.785572 -5.440210 13.255996 49.575889 -4.469023 11.620494 -7.856769 0.000000 -0.000000 0.000000 -7.792010 -11.378722 -47.838918 1.813352 -18.903901 69.055994 -1.640910 -6.072251 -23.343646 0.000000 -0.000000 0.000000 -6.635332 -0.637215 37.854305 -3.697386 -1.030259 -4.050052 -2.871075 -4.363593 2.258860 0.024374 -0.916087 -7.419473 5.639527 1.676059 -11.142007 -28.444721 1.819381 1.599014 -23.965050 10.488307 2.614153 71.426373 -73.970701 -66.054982 43.966829 -9.157218 -12.203585 17.781877 3.669992 -7.602373 29.062244 5.719272 -2.939088 -92.432235 56.749832 -97.172550 -36.560986 12.474221 -16.749546 
-0.105657 -0.478720 0.892938 -105.037336 -7.658596 99.908055 19.971635 18.176417 -35.726617 -4.409882 18.380380 60.991140 -1.568079 8.757963 -11.476397 0.000000 -0.000000 0.000000 -5.754498 -12.136977 -46.815916 3.262659 -22.250815 68.801505 6.640295 2.824305 -7.904326 0.000000 -0.000000 0.000000 -6.369232 0.817003 39.083493 -1.831638 -2.427353 -4.499496 -1.762245 -4.063441 1.920834 2.256202 -0.987097 -6.921375 7.845128 2.135348 -12.400246 -27.442540 -0.237511 1.000800 -24.234571 9.398645 3.803174 73.520977 -76.542359 -67.584132 42.603949 -11.212304 -10.490368 17.445292 3.079980 -7.679154 29.784089 5.014648 -3.855598 -95.159268 54.311050 -100.198934 -37.605823 10.824161 -18.428363 
-0.102558 -0.414205 0.900556 -103.747642 -4.256041 99.681841 16.904311 20.548542 -41.776101 -7.841244 19.743038 68.525451 -4.955293 1.325914 -12.982838 0.000000 -0.000000 0.000000 -4.875813 -12.294408 -45.911017 3.334161 -24.092137 69.525874 16.165479 9.930773 -0.869665 0.000000 -0.000000 0.000000 -5.366586 1.264694 40.840662 -0.502786 -3.416260 -4.478468 -0.741351 -3.542552 1.306381 4.365940 -0.148432 -7.464119 8.998051 2.741494 -13.917610 -28.101873 -1.937270 0.057817 -24.741264 8.813470 4.174765 84.515432 -76.666999 -77.743387 41.396291 -13.464935 -8.373559 18.359714 3.620442 -7.725921 31.163627 4.962106 -5.513916 -93.573766 53.968579 -99.204710 -36.308078 11.626487 -18.522746 
-0.101831 -0.351003 0.899335 -103.523793 -1.198967 98.148147 15.792104 21.132182 -42.684756 -14.079017 19.832159 71.811884 -6.828673 -6.913550 -13.898257 0.000000 -0.000000 0.000000 -5.665506 -11.555966 -45.360898 0.753741 -22.962834 72.385899 9.675046 3.737089 -5.595016 0.000000 -0.000000 0.000000 -4.933389 1.595231 44.040554 0.089177 -3.138301 -4.362439 0.342332 -3.090860 0.489144 5.373625 -0.524746 -9.792553 10.230285 4.077852 -14.062667 -29.272716 -3.441342 -0.785689 -24.946157 6.729283 4.010276 101.867865 -74.971397 -94.208350 43.424958 -12.747583 -9.144912 19.723511 5.071099 -6.495411 33.538034 3.558844 -5.338444 -92.993436 53.281830 -98.498899 -35.599759 10.802423 -18.694964 
-0.102022 -0.291811 0.886847 -102.943502 1.576491 97.023106 15.899709 20.068896 -41.676227 -14.870472 17.528124 72.831139 -10.052167 -9.031805 -12.050187 0.000000 -0.000000 0.000000 -9.317717 -11.920123 -46.013603 -2.071372 -19.466507 73.592736 5.741803 0.558893 -10.629470 0.000000 -0.000000 0.000000 -3.115990 1.164327 46.079977 0.182765 -2.548692 -3.616827 0.638526 -2.541828 0.001673 5.772987 -0.183277 -13.314693 11.280936 2.953039 -14.680200 -30.471024 -5.248520 -2.501622 -25.201444 2.125818 3.571526 117.738363 -72.092693 -107.905233 42.810590 -12.676329 -9.924377 22.089722 6.281913 -4.505411 34.769813 1.620527 -5.545106 -91.577341 52.582400 -96.661669 -35.661299 10.400767 -18.412818 
-0.102687 -0.233219 0.866438 -102.648792 4.108174 96.227460 17.337740 18.520426 -37.030666 -11.704189 12.427696 69.616982 -1.948858 -1.141357 -26.695351 0.000000 -0.000000 0.000000 -13.702029 -13.445763 -47.185538 -1.272532 -14.205829 69.614830 3.951897 -4.803338 -14.171922 0.000000 -0.000000 0.000000 -1.879927 0.768279 48.028252 -0.027240 -1.237180 -4.171398 1.682513 -2.186204 0.365216 5.914382 -1.704238 -17.630291 12.164616 3.491505 -14.521721 -30.916125 -6.617928 -3.585458 -25.906743 -5.450218 0.519853 129.240217 -70.452510 -115.888902 44.092156 -13.067506 -9.349363 23.668378 7.059882 -2.521312 36.328966 0.419957 -5.075134 -87.995468 51.656074 -92.744049 -35.196399 11.399082 -16.693262 
-0.101823 -0.173786 0.843621 -101.670370 5.464583 96.843459 20.572025 18.108892 -35.720993 -11.218775 8.315945 67.562318 -0.312789 1.672781 -37.321977 0.000000 -0.000000 0.000000 -18.909188 -16.742091 -48.217086 -2.760821 -10.766528 61.235752 4.731420 -7.516443 -14.934478 0.000000 -0.000000 0.000000 -1.174744 1.136228 48.657126 0.621235 -1.048379 -4.227799 3.214506 -2.479537 0.299801 6.066644 -1.623781 -21.804900 12.800415 2.978398 -16.195286 -29.672649 -9.164705 -2.714620 -26.466611 -12.363801 -3.242642 131.376778 -67.549245 -114.184920 45.437539 -13.969838 -8.409674 24.126081 7.594710 -0.799891 37.140263 0.186651 -6.036570 -84.558059 51.936701 -87.666527 -34.445636 11.000128 -16.908647 
-0.102795 -0.107887 0.829135 -100.217551 5.027384 97.145147 24.982917 19.633769 -34.157683 -11.059011 6.689966 65.478175 -2.566766 0.125245 -38.125772 0.000000 -0.000000 0.000000 -24.207919 -20.447871 -46.534494 -4.040971 -8.458417 50.114575 6.775421 -7.145155 -12.939187 0.000000 -0.000000 0.000000 -1.077246 1.867699 49.717068 1.757312 -2.523947 -3.045618 4.896770 -3.422448 -1.145703 4.954758 -0.981689 -24.622562 13.067863 2.860953 -18.695797 -27.368174 -12.156487 -1.141072 -24.985598 -15.478725 -7.239383 124.101805 -64.337468 -105.949832 48.272569 -15.008053 -7.506959 23.826666 8.800951 -0.248938 36.949546 0.550123 -6.569759 -85.778658 52.331742 -88.333356 -32.067443 10.556738 -16.347605 
-0.109970 -0.036332 0.821516 -99.547431 4.115740 97.335672 29.974798 22.336770 -30.294960 -13.319790 4.128926 60.401596 -5.855569 -2.754291 -35.575650 0.000000 -0.000000 0.000000 -28.988206 -23.973991 -44.319036 -2.820299 -9.750503 43.546754 8.096767 -5.740242 -13.311140 0.000000 -0.000000 0.000000 -0.540691 0.472932 48.779959 2.014899 -3.517036 -2.389269 4.689819 -3.827524 -1.799010 3.371797 0.076164 -25.036880 11.834820 2.229619 -18.046094 -26.855742 -12.191295 -0.980041 -21.330105 -13.772855 -9.871732 112.449060 -65.653210 -96.923926 49.885788 -15.770634 -7.419597 24.004538 9.591196 0.053359 34.040728 1.521986 -7.080540 -88.646806 53.129386 -90.452859 -31.877447 12.789962 -12.818646 
-0.119609 0.042609 0.823473 -100.617593 2.495786 98.426555 33.123438 22.221474 -25.023219 -12.573283 1.104956 52.270412 -10.435531 -3.044436 -29.236541 0.000000 -0.000000 0.000000 -30.877668 -26.303424 -43.225434 -3.101799 -14.812792 43.160633 6.807963 -7.025736 -13.915061 0.000000 -0.000000 0.000000 0.275308 -1.475385 45.559058 0.741281 -3.038756 -2.436477 2.823022 -3.845683 -1.894563 0.884409 1.117944 -22.592604 8.899717 2.823975 -16.480286 -27.985083 -10.316897 -0.130573 -19.803375 -9.604878 -9.482820 97.553020 -67.741306 -84.447070 47.848172 -14.550387 -9.206594 24.169408 9.481912 -0.345568 30.114390 3.120322 -7.642491 -90.338776 53.726098 -91.091382 -33.279117 15.778429 -9.463376 
-0.130231 0.134091 0.834059 -103.441447 0.382671 99.365710 34.498651 17.717816 -19.256113 -8.662455 -2.922355 44.032276 -16.870970 -0.459804 -16.709984 0.000000 -0.000000 0.000000 -28.004866 -26.044656 -42.706963 -4.119617 -18.086864 46.380069 5.597403 -9.083428 -12.922647 0.000000 -0.000000 0.000000 -0.910786 -1.726409 41.176473 -1.088247 -2.012435 -0.950185 1.205462 -3.622845 -1.841007 -1.304171 1.772251 -19.796311 5.988662 3.428825 -15.524838 -29.351859 -7.021905 -0.056478 -20.044542 -4.877106 -6.619408 85.852730 -67.759656 -76.227874 45.592573 -12.559230 -11.419023 23.752672 9.875129 -1.648240 27.621336 5.547163 -6.327502 -89.867423 53.714754 -91.482839 -34.405554 17.000010 -7.031962 
-0.141381 0.232131 0.847130 -104.894986 -0.996115 100.017158 34.070921 12.223044 -16.898314 -4.959627 -7.294918 39.332863 -12.389917 7.459479 -3.278890 0.000000 -0.000000 0.000000 -25.402593 -27.086470 -44.392696 -4.313449 -23.059409 53.572259 5.750288 -9.787677 -7.679851 0.000000 -0.000000 0.000000 -1.857129 -2.059169 38.539574 -3.244154 -0.946353 -2.029554 -0.459528 -3.854191 -0.307634 -1.898003 1.393064 -16.394565 4.860887 4.704708 -15.087375 -29.551525 -3.326799 0.760535 -20.243032 -1.282395 -4.986348 79.290432 -67.629241 -71.081973 43.988960 -10.210910 -13.078125 22.010477 9.894025 -2.046231 27.741297 8.126801 -5.005744 -86.871919 54.004146 -89.231521 -37.030357 18.207183 -6.381340 
-0.150080 0.324858 0.862680 -104.338990 -0.816670 100.049241 33.406617 11.096640 -20.237480 -4.656122 -2.426478 43.666359 -8.085879 9.969187 -9.707417 0.000000 -0.000000 0.000000 -24.615000 -25.670766 -41.364615 -3.022487 -28.763352 59.416657 3.652261 -8.089832 -15.864239 0.000000 -0.000000 0.000000 -2.100515 -2.000412 38.939620 -3.600547 -1.193765 -3.260522 -1.149722 -3.506283 -0.492671 -2.722395 1.793672 -12.241561 5.006151 6.366258 -16.022821 -30.255943 -2.320237 1.809457 -20.011496 2.562463 -4.511485 78.633537 -67.290714 -71.918344 41.938052 -8.578516 -14.543154 21.265207 10.062203 -1.795322 25.127570 8.464312 -6.106179 -83.353336 55.392422 -86.691327 -37.188365 17.360016 -7.741501 
-0.154626 0.420480 0.875216 -102.512428 0.010298 98.640121 30.972844 14.321417 -27.801999 -5.266909 4.479775 57.357151 -5.549928 8.869902 -13.425272 0.000000 -0.000000 0.000000 -20.682536 -27.091684 -40.841430 -2.511625 -27.320319 68.456582 5.273897 -5.755720 -13.885936 0.000000 -0.000000 0.000000 -3.072241 0.738394 40.890713 -2.099977 -2.117758 -2.750999 0.026402 -3.593662 0.163456 -1.128631 2.158353 -11.862189 5.249738 6.633235 -15.720622 -28.762323 -3.291380 2.172347 -21.210978 3.946626 -5.019897 75.931794 -66.949037 -71.027380 41.211989 -6.579069 -16.531560 20.857287 9.730895 -3.336610 23.669766 8.465877 -7.882327 -80.271036 55.443260 -84.822909 -35.170311 16.227477 -7.885342 
